<?xml version="1.0" encoding="UTF-8" standalone="no"?>
<!DOCTYPE svg PUBLIC "-//W3C//DTD SVG 1.1//EN" "http://www.w3.org/Graphics/SVG/1.1/DTD/svg11.dtd">
<svg version="1.1" xmlns="http://www.w3.org/2000/svg" xmlns:xlink="http://www.w3.org/1999/xlink" preserveAspectRatio="xMidYMid meet" viewBox="23.288101342498233 -154.85949441879924 752.3389938754843 784.7726482116176" width="350" height="365.18"><defs><path d="M183.21 307.01C183.21 307.01 183.21 307.01 183.21 307.01C184.82 297.77 188.37 288.97 193.64 281.22C194.85 279.43 197.24 277.35 200.8 274.98C200.8 274.98 200.8 274.98 200.8 274.98C204.89 272.47 210.01 272.34 214.22 274.65C215.15 275.16 210.07 272.37 210.73 272.74C216.05 275.66 220.41 280.05 223.29 285.38C223.68 286.12 224.68 287.97 226.27 290.92L228.7 299.27C227.15 303.05 226.17 305.4 225.78 306.35C224.2 310.19 221.94 313.71 219.12 316.76C218.25 317.7 220.2 315.6 219.4 316.46C216.4 319.7 212.42 321.88 208.06 322.67C206.95 322.87 211.05 322.13 210.12 322.3C205.27 323.17 200.28 321.88 196.47 318.76C195.86 318.27 194.36 317.04 191.95 315.08L183.21 307.01Z" id="a1E5Bxv6wN"></path><path d="M178.74 279.5L187.9 274C188.92 273.61 189.55 273.37 189.8 273.27C196.47 270.71 203.82 270.64 210.54 273.05C211.24 273.3 206.01 271.42 207.47 271.95C211.76 273.49 215.5 276.27 218.22 279.93C219.81 282.07 219.36 281.45 220.68 283.24C224.31 288.11 226.96 293.63 228.51 299.5C228.58 299.76 228.75 300.41 229.03 301.44C228.91 303.73 228.84 305.16 228.81 305.73C228.48 312.17 226.89 318.48 224.12 324.3C222.94 326.79 221.8 328.46 220.72 329.31C218.86 330.78 216.73 331.05 214.32 330.12C214.32 330.12 208.41 327.38 208.41 327.38C207.71 326.99 205.97 326.04 203.18 324.51C197.9 321.61 194.61 319.8 193.29 319.08C187.49 315.89 183.01 310.74 180.68 304.54C180.4 303.81 182.47 309.28 182.01 308.07C180.22 303.32 179.4 298.26 179.59 293.18C179.61 292.6 179.67 291.15 179.76 288.84" id="a1USiZGaNk"></path><path d="M319.66 -63.84C326.13 -68.98 331.13 -75.72 334.17 -83.4C335.28 -86.22 333.98 -82.92 335.09 -85.73C338.12 -93.39 338.83 -101.77 337.12 -109.83C336.54 -112.57 337.31 -108.93 336.7 -111.79C335.09 -119.39 330.88 -126.19 324.8 -131.02C322.5 -132.84 323.27 -132.23 320.53 -134.4C315.88 -138.1 310.06 -140.03 304.12 -139.85C300.61 -139.75 300.61 -139.75 297.43 -139.66C290.38 -139.46 283.58 -136.99 278.04 -132.62C274.94 -130.17 274.96 -130.19 272.06 -127.9C265.91 -123.05 261.77 -116.09 260.45 -108.37C260.14 -106.54 260.35 -107.77 259.81 -104.63C259.22 -101.19 257.16 -98.18 254.16 -96.4C252.91 -95.66 253.29 -95.89 251.89 -95.06C249.86 -93.85 247.24 -94.85 246.52 -97.11C246.3 -97.79 246.78 -96.3 246.49 -97.2C245.8 -99.37 245.65 -101.68 246.04 -103.93C246.86 -108.6 246.63 -107.27 246.92 -108.96C248.99 -120.73 255.47 -131.27 265.05 -138.42C269.16 -141.49 268.66 -141.11 273.29 -144.56C281.26 -150.51 291 -153.6 300.95 -153.34C304.66 -153.25 300.4 -153.36 304.1 -153.26C314.09 -153 323.7 -149.4 331.4 -143.05C334.7 -140.33 331 -143.38 333.87 -141.01C342.88 -133.58 348.75 -123.01 350.3 -111.44C350.71 -108.4 350.43 -110.47 351.07 -105.73C351.91 -99.48 351.58 -93.12 350.1 -86.99C349.86 -85.97 349.24 -83.44 348.27 -79.38C346.91 -76.1 346.07 -74.05 345.73 -73.23C342.83 -66.2 338.27 -59.98 332.44 -55.1C331.56 -54.36 329.34 -52.5 325.79 -49.53C319.59 -44.34 315.71 -41.09 314.16 -39.79C313.59 -39.32 313.31 -38.57 313.44 -37.83C315.09 -28.54 319.47 -3.72 321.03 5.11C321.43 7.36 320.94 9.67 319.67 11.56C318.73 12.96 320.41 10.46 320.1 10.92C317.29 15.1 311.59 16.14 307.49 13.22C307.05 12.91 309.58 14.71 308.24 13.75C306.36 12.42 305.08 10.41 304.66 8.14C304.21 5.77 303.11 -0.15 301.33 -9.63C298.9 -27.72 297.38 -39.02 296.77 -43.54C296.61 -44.73 297.09 -45.92 298.03 -46.67C304.33 -51.67 315.03 -60.17 319.66 -63.84Z" id="b1N8RzOFVL"></path><path d="M328.53 35.27C332.5 39.5 332.39 46.26 328.27 50.35C324.16 54.43 317.59 54.32 313.62 50.08C309.65 45.85 309.76 39.09 313.88 35C317.99 30.92 324.56 31.03 328.53 35.27Z" id="cjrklWx01"></path><path d="M689.71 61.09C698.46 64.43 707.93 65.39 717.17 63.87C720.49 63.33 716.33 64.01 719.64 63.47C728.85 61.95 737.37 57.68 744.1 51.22C746.34 49.07 743.14 52.15 745.48 49.9C751.83 43.8 755.82 35.66 756.76 26.9C757.12 23.56 757.02 24.56 757.44 20.59C758.17 13.88 756.55 7.12 752.87 1.46C750.65 -1.96 750.49 -2.2 748.47 -5.31C744.11 -12.02 737.74 -17.19 730.27 -20.07C726.06 -21.7 726.03 -21.71 722.1 -23.23C713.82 -26.43 704.64 -26.39 696.38 -23.13C694.48 -22.38 695.99 -22.98 692.68 -21.67C689.01 -20.22 684.88 -20.48 681.41 -22.37C679.95 -23.17 680.34 -22.96 678.7 -23.85C676.32 -25.15 675.74 -28.29 677.49 -30.35C678 -30.96 676.82 -29.56 677.5 -30.36C679.17 -32.33 681.31 -33.86 683.72 -34.79C688.65 -36.72 686.99 -36.07 688.73 -36.75C701.35 -41.67 715.38 -41.51 727.88 -36.29C733.28 -34.04 732.74 -34.26 738.83 -31.73C749.25 -27.38 757.96 -19.72 763.6 -9.93C765.76 -6.18 763.53 -10.04 765.69 -6.3C771.35 3.53 773.64 14.94 772.21 26.19C771.6 31.04 772.27 25.77 771.73 30C770.06 43.13 763.44 55.13 753.21 63.53C750.61 65.67 752.67 63.98 748.56 67.36C743.03 71.9 736.69 75.35 729.87 77.51C728.77 77.86 726.03 78.72 721.65 80.11C717.78 80.69 715.37 81.05 714.4 81.2C705.88 82.47 697.17 81.64 689.04 78.77C687.8 78.33 684.69 77.23 679.71 75.47C671.03 72.41 665.61 70.5 663.44 69.73C662.64 69.45 661.76 69.63 661.13 70.19C653.26 77.24 632.28 96.04 624.81 102.73C622.89 104.45 620.36 105.34 617.78 105.19C615.89 105.09 619.34 105.28 618.73 105.25C612.98 104.92 608.59 100 608.91 94.26C608.94 93.63 608.75 97.1 608.86 95.2C609 92.6 610.16 90.16 612.08 88.4C614.07 86.58 619.04 82.04 626.99 74.77C642.76 61.8 652.61 53.7 656.56 50.46C657.6 49.6 659.04 49.36 660.31 49.85C668.86 53.12 683.42 58.68 689.71 61.09Z" id="b3LHceFhAU"></path><path d="M600.53 127.78C598.88 134.16 592.37 138 586 136.35C579.64 134.69 575.81 128.17 577.46 121.78C579.11 115.4 585.62 111.56 591.98 113.21C598.35 114.87 602.18 121.39 600.53 127.78Z" id="c6yi3lLg9"></path><path d="M485.84 31.31C496.39 32.48 507.05 30.84 516.75 26.55C520.24 25.01 515.87 26.95 519.35 25.41C529.02 21.14 537.16 14.04 542.71 5.05C544.56 2.06 541.9 6.36 543.83 3.24C549.07 -5.25 551.14 -15.31 549.69 -25.17C549.14 -28.92 549.32 -27.74 548.66 -32.2C547.55 -39.77 543.85 -46.72 538.21 -51.87C534.8 -54.98 534.58 -55.17 531.5 -57.99C524.8 -64.11 516.34 -67.96 507.33 -68.99C502.25 -69.57 502.22 -69.57 497.48 -70.12C487.48 -71.26 477.43 -68.62 469.29 -62.7C467.42 -61.34 468.91 -62.42 465.65 -60.05C462.03 -57.42 457.43 -56.53 453.09 -57.61C451.26 -58.07 451.75 -57.95 449.7 -58.46C446.73 -59.2 445.2 -62.49 446.53 -65.24C446.92 -66.04 446.01 -64.17 446.53 -65.24C447.81 -67.87 449.72 -70.15 452.1 -71.86C456.97 -75.37 455.33 -74.19 457.04 -75.42C469.49 -84.39 484.92 -88.2 500.11 -86.05C506.68 -85.12 506.01 -85.21 513.41 -84.17C526.07 -82.37 537.8 -76.46 546.78 -67.34C550.21 -63.85 546.63 -67.49 550.05 -64.01C559.06 -54.86 564.82 -43 566.45 -30.26C567.15 -24.78 566.37 -30.83 566.98 -26.06C568.88 -11.19 565.01 3.85 556.18 15.96C553.93 19.03 555.72 16.57 552.17 21.44C547.39 27.99 541.41 33.56 534.54 37.86C533.44 38.55 530.68 40.28 526.26 43.05C522.19 44.78 519.64 45.86 518.63 46.29C509.64 50.11 499.85 51.67 490.12 50.84C488.63 50.71 484.91 50.4 478.96 49.89C468.57 49.01 462.08 48.45 459.49 48.23C458.53 48.15 457.61 48.6 457.08 49.39C450.45 59.33 432.77 85.86 426.47 95.3C424.85 97.73 422.33 99.42 419.46 100C417.35 100.42 421.2 99.65 420.51 99.79C414.12 101.06 407.9 96.92 406.62 90.53C406.49 89.84 407.26 93.71 406.84 91.62C406.26 88.72 406.84 85.71 408.46 83.24C410.12 80.69 414.28 74.31 420.94 64.1C434.56 45.44 443.07 33.78 446.47 29.11C447.38 27.87 448.88 27.21 450.41 27.38C460.72 28.52 478.26 30.47 485.84 31.31Z" id="a1mKXojmAX"></path><path d="M406.94 129.6C406.94 137.05 400.89 143.1 393.44 143.1C385.99 143.1 379.94 137.05 379.94 129.6C379.94 122.15 385.99 116.1 393.44 116.1C400.89 116.1 406.94 122.15 406.94 129.6Z" id="a1hNuBI3dj"></path><path d="M249.9 568.51C249.27 569.74 247.77 570.23 246.54 569.6C245.31 568.98 244.82 567.47 245.44 566.24C246.07 565.01 247.58 564.52 248.81 565.15C250.04 565.77 250.53 567.28 249.9 568.51Z" id="b1hh4FQheT"></path><path d="M254.52 547.56C253.9 548.79 252.39 549.28 251.16 548.65C249.93 548.03 249.44 546.52 250.07 545.29C250.69 544.06 252.2 543.57 253.43 544.2C254.66 544.82 255.15 546.33 254.52 547.56Z" id="i1gMkewlF"></path><path d="M228.7 550.81C228.07 552.04 226.56 552.53 225.34 551.91C224.11 551.28 223.62 549.77 224.24 548.54C224.87 547.31 226.37 546.82 227.6 547.45C228.83 548.08 229.32 549.58 228.7 550.81Z" id="a1Vd6MdRvM"></path><path d="M140.26 505.8C139.64 507.03 138.13 507.52 136.9 506.89C135.67 506.27 135.18 504.76 135.81 503.53C136.43 502.3 137.94 501.81 139.17 502.44C140.4 503.06 140.89 504.57 140.26 505.8Z" id="b1b0S3c11L"></path><path d="M118.95 503.58C118.32 504.81 116.82 505.3 115.59 504.68C114.36 504.05 113.87 502.55 114.49 501.32C115.12 500.09 116.63 499.6 117.86 500.22C119.09 500.85 119.58 502.35 118.95 503.58Z" id="adhUYmkTM"></path><path d="M124.97 479.89C124.34 481.12 122.84 481.61 121.61 480.98C120.38 480.36 119.89 478.85 120.51 477.62C121.14 476.39 122.64 475.9 123.87 476.53C125.1 477.15 125.59 478.66 124.97 479.89Z" id="k1FpVqLPQ"></path><path d="" id="gaDwVwVvM"></path><path d="M343.02 462.72C342.59 475.34 342.32 483.23 342.21 486.38C341.88 495.94 339.47 505.31 335.13 513.83C333.65 516.73 334.49 515.08 332.69 518.63C329.43 525.03 324.98 530.74 319.58 535.47C318.6 536.34 316.13 538.5 312.18 541.96L291.69 568.65C288.05 573.22 285.78 576.08 284.87 577.22C280.64 582.54 275.7 587.25 270.17 591.2C268.17 592.63 273.04 589.15 271.67 590.12C264.19 595.48 255.23 598.41 246.03 598.52C245.48 598.53 244.12 598.54 241.94 598.57C239.46 598.66 237.91 598.72 237.3 598.74C232.39 598.93 227.71 596.68 224.8 592.73C223.29 590.7 225.2 593.29 224.14 591.85C219.63 585.74 213.76 580.77 207 577.33C207 577.33 207 577.33 207 577.33L188.88 562.07C187.06 560.57 185.93 559.64 185.48 559.26C180.89 555.48 178.97 549.35 180.57 543.63C181.07 541.86 182.31 537.45 184.29 530.38C181.87 536.94 180.35 541.03 179.75 542.67C177.14 549.73 169.63 553.68 162.34 551.83C160.89 551.46 157.27 550.54 151.47 549.07L123.99 543.71C122.27 543.56 121.2 543.46 120.77 543.42C114.8 542.88 109.14 540.55 104.51 536.74C102.65 535.2 105.7 537.72 104.22 536.5C98.49 531.77 95.09 524.79 94.9 517.36C94.86 516.12 94.78 513.02 94.66 508.07L97.86 493.3L107.28 474.79L114.53 460.55L122.6 449.78L127.81 442.94L135.73 431.15C135.73 431.15 135.73 431.15 135.73 431.15C139.92 424.9 145.12 419.39 151.11 414.84C158.14 409.5 165.05 404.48 171.84 399.76C181.64 392.95 189.48 385.71 195.35 378.06" id="i440KXR69l"></path><path d="M387.45 400.35C387.45 400.35 387.45 400.35 387.45 400.35C394.18 393.82 399.45 385.94 402.89 377.21C403.69 375.2 404.06 372.06 404.02 367.79C404.02 367.79 404.02 367.79 404.02 367.79C403.79 362.99 401.01 358.69 396.73 356.51C395.79 356.03 400.95 358.66 400.28 358.31C394.87 355.56 388.79 354.43 382.76 355.06C381.93 355.15 379.84 355.36 376.51 355.71L368.23 358.4C365.99 361.81 364.59 363.94 364.03 364.8C361.75 368.27 360.1 372.12 359.17 376.16C358.89 377.41 359.53 374.62 359.26 375.76C358.27 380.08 358.71 384.59 360.52 388.63C360.98 389.67 359.28 385.86 359.67 386.73C361.67 391.22 365.55 394.62 370.27 396.02C371.02 396.24 372.88 396.79 375.86 397.67L387.45 400.35Z" id="e8QatLFFZQ"></path><path d="M412.7 388.56L412.09 377.89C411.84 376.84 411.68 376.18 411.62 375.91C409.98 368.97 405.9 362.84 400.13 358.65C399.52 358.21 404.03 361.48 402.76 360.56C399.07 357.89 394.67 356.36 390.12 356.17C387.46 356.06 388.22 356.09 386 356C379.93 355.75 373.87 356.66 368.15 358.69C367.89 358.77 367.27 359 366.26 359.35C364.43 360.74 363.29 361.6 362.83 361.95C357.7 365.85 353.38 370.72 350.13 376.29C348.74 378.66 348 380.53 347.9 381.91C347.73 384.27 348.71 386.19 350.84 387.66C350.84 387.66 356.43 391 356.43 391C357.14 391.36 358.91 392.26 361.75 393.7C367.11 396.43 370.46 398.14 371.8 398.82C377.7 401.82 384.48 402.62 390.91 401.06C391.68 400.87 385.99 402.25 387.25 401.94C392.19 400.75 396.83 398.58 400.91 395.56C401.38 395.22 402.55 394.35 404.41 392.98" id="a19tbVT4Aj"></path><path d="M161.45 220.05C149.17 233.78 141.5 242.36 138.43 245.79C132.25 252.7 126.85 260.26 122.32 268.34C119.99 272.49 114.16 282.88 104.83 299.51L89.13 342.85C88.17 345.2 87.57 346.67 87.33 347.26C84.84 353.38 84.42 360.15 86.12 366.53C86.46 367.84 87.33 371.09 88.71 376.3L95.98 417.98L96.72 458.92L94.68 503.63C93.81 508.53 93.26 511.59 93.04 512.82C91.05 523.97 91.43 535.42 94.16 546.42C95.54 551.98 95.37 551.3 96.71 556.69C99.51 567.98 106.32 577.86 115.86 584.51C117.48 585.65 110.73 580.94 113.15 582.63C113.15 582.63 135.6 596.5 135.6 596.5C137.39 597.47 141.86 599.9 149.01 603.78C161.56 609.5 169.41 613.07 172.55 614.5C178.33 617.14 184.33 619.28 190.47 620.9C193 621.56 199.3 623.23 209.4 625.89C217.37 626.38 222.35 626.69 224.34 626.81C231.05 627.23 237.77 626.33 244.13 624.17C246.06 623.51 237.99 626.26 238.86 625.96C248.74 622.6 258.01 617.69 266.33 611.41C268.12 610.06 272.6 606.68 279.75 601.28L309.56 569.84C315.13 563.66 318.61 559.8 320 558.25C327.42 550 337.22 544.25 348.04 541.79C348.04 541.79 348.04 541.79 348.04 541.79C357.82 537.27 362.16 534.93 361.07 534.78L378.78 521.69L395.66 509.22C403.02 501.02 407.62 495.9 409.46 493.84C416.19 486.34 422.13 478.17 427.18 469.44C429.98 464.61 436.97 452.54 448.15 433.23" id="a3SptOEtkr"></path><path d="M433.15 222.89L413.66 206.93L390.35 195.06C378.3 191.77 370.77 189.7 367.76 188.88C361.68 187.21 355.27 190.05 352.41 195.67C350.41 199.59 345.42 209.4 337.43 225.1C344.15 208.91 348.36 198.79 350.04 194.75C352.56 188.68 350.72 181.68 345.55 177.64C341.62 174.56 338.42 172.05 334.45 168.95C329.01 164.69 322.03 162.94 315.23 164.13C314.33 164.28 319.53 163.38 317.94 163.65C313.27 164.47 308.47 163.75 304.25 161.6C302.47 160.69 305.2 162.08 303.81 161.38C298.41 158.63 292.13 158.19 286.4 160.17C285.2 160.59 282.19 161.63 277.38 163.29" id="bbB0CtJut"></path><path d="M480.65 266.92C481.79 273.17 482.51 277.08 482.79 278.64C483.79 284.11 485.69 289.38 488.41 294.22C488.95 295.18 488.44 294.27 489.47 296.11C490.54 298.01 491.14 300.12 491.24 302.29C491.62 310.99 492.34 327.26 492.65 334.32C492.99 341.93 492.21 349.54 490.33 356.92C487.78 366.92 484.04 381.58 481.76 390.53C479 401.37 474.3 411.61 467.89 420.77C465.39 424.36 459.12 433.32 449.09 447.65C443.48 456.23 439.97 461.59 438.57 463.74C432.7 472.72 429.28 483.08 428.65 493.79C428.57 495.18 428.37 498.68 428.04 504.26L434.82 528.24C434.82 528.24 434.82 528.24 434.82 528.24C440.6 531.18 447.6 530.25 452.4 525.89C452.62 525.69 453.17 525.2 454.04 524.4L477.18 511.15L492.04 502.31L525.87 486.73C542.65 474 553.14 466.04 557.34 462.86C565.23 456.87 571.15 448.66 574.32 439.27C575.26 436.48 577.62 429.5 581.4 418.33C585.49 412.05 588.04 408.13 589.07 406.56C591.8 402.37 593.46 397.57 593.89 392.59C594.73 383.04 596.6 361.86 597.44 352.28C597.87 347.43 596.78 342.57 594.32 338.37C593.96 337.75 593.07 336.22 591.64 333.77L582.41 324.76L567.69 314.68C566.61 313.21 565.94 312.3 565.67 311.93C562.29 307.37 557.9 303.65 552.85 301.08C552.32 300.81 551 300.14 548.88 299.06L523.64 268.95L492.17 244.3L462.01 228.95L432.47 222.54" id="m3GrZH7S17"></path><path d="M233.88 130.43C227.17 131.29 222.98 131.83 221.3 132.05C216.26 132.69 211.14 131.81 206.61 129.5C205.39 128.88 209.28 130.86 208.21 130.31C203.17 127.75 197.59 126.42 191.93 126.45C189.04 126.46 181.82 126.49 170.26 126.54L140.28 134.58L107.61 132.62L95.21 129.89C93.87 129.59 93.03 129.41 92.7 129.33C88.72 128.46 84.59 128.44 80.6 129.28C75.82 130.29 69.67 131.58 65.42 132.48C59.69 133.69 54.38 136.37 50.02 140.27C49.13 141.06 53.28 137.36 52.44 138.11C47.95 142.12 44.55 147.19 42.55 152.86C41.13 156.88 37.58 166.92 31.91 183C30.76 191.89 30.05 197.44 29.76 199.67C29.25 203.65 28.06 207.51 26.24 211.08C25.81 211.92 28.08 207.48 27.85 207.93C25.4 212.73 24.39 218.13 24.93 223.48C25.98 234.03 28.11 255.24 29.11 265.23C29.84 272.53 31.41 279.72 33.78 286.66C34.88 289.87 37.62 297.88 42 310.7L51 350.67L59.4 378.25C59.4 378.25 59.4 378.25 59.4 378.25C65.62 376.97 71.15 373.45 74.95 368.36C75.97 367 78.52 363.58 82.6 358.12L102.25 304.25C102.55 295.42 102.74 289.89 102.82 287.69C103.02 281.83 104.5 276.1 107.15 270.88C109.7 265.88 113.84 257.75 116.51 252.48C118.74 248.11 121.47 244 124.64 240.25C127.16 237.27 130.9 232.84 133.66 229.58C136.03 226.78 138.16 223.8 140.03 220.65C143.02 215.63 150.01 203.91 153.21 198.54C154.38 196.57 155.79 194.75 157.4 193.11C161.21 189.23 170.52 179.75 174.41 175.8C175.77 174.41 177.32 173.22 179 172.26C183.04 169.96 193.13 164.22 209.28 155.03C219.73 152.55 226.27 151 228.88 150.38C237.14 148.42 245.82 149.46 253.38 153.31C254.2 153.72 256.23 154.76 259.49 156.42L274.94 161.69C268.12 152.03 263.87 146 262.16 143.58C258.76 138.76 253.73 135.32 248 133.91C246.12 133.45 241.41 132.29 233.88 130.43Z" id="b11kT8OEBb"></path><path d="M281 476.03C281.7 483.15 279.23 491.39 273.6 500.75C269.89 505.18 267.57 507.94 266.64 509.05C262.52 513.96 257.55 518.09 251.96 521.23C249.87 522.41 244.62 525.35 236.24 530.07C236.18 530.09 236.14 530.11 236.13 530.11C227.21 533.73 217.16 533.31 208.59 528.94C207.28 528.28 204.01 526.61 198.78 523.95C197.76 521.99 197.12 520.77 196.87 520.28C194.56 515.84 189.07 514.15 184.67 516.53C184.13 516.82 184.9 516.4 182.96 517.45C182.34 517.78 181.59 517.79 180.96 517.47C174.99 514.43 163.59 508.63 158.99 506.29C154 503.75 150.4 499.12 149.16 493.66C148.21 489.53 147.77 487.56 146.93 483.88C145.33 476.85 146.24 469.47 149.52 463.03C149.76 462.56 146.63 468.71 147.17 467.64C149.51 463.05 150.72 457.96 150.7 452.81C150.66 442.28 152.93 434.24 157.49 428.71C162.77 422.31 166.53 419.18 171.88 417.8C175.68 416.82 180.28 416.71 186.78 416.94C197.24 417.32 204.87 418.72 209.67 421.17L229.72 430.94C243.63 440.44 252.32 446.37 255.79 448.75C264.82 454.91 272.72 462.57 279.16 471.41C280.23 472.87 280.84 474.42 281 476.03Z" id="f4LyHBacp"></path></defs><g><g><use xlink:href="#a1E5Bxv6wN" opacity="1" fill="#000000" fill-opacity="1"></use><g><use xlink:href="#a1E5Bxv6wN" opacity="1" fill-opacity="0" stroke="#000000" stroke-width="3" stroke-opacity="1"></use></g></g><g><g><use xlink:href="#a1USiZGaNk" opacity="1" fill-opacity="0" stroke="#000000" stroke-width="3" stroke-opacity="1"></use></g></g><g><g><use xlink:href="#b1N8RzOFVL" opacity="1" fill-opacity="0" stroke="#1d1b1b" stroke-width="3" stroke-opacity="1"></use></g></g><g><g><use xlink:href="#cjrklWx01" opacity="1" fill-opacity="0" stroke="#000000" stroke-width="3" stroke-opacity="1"></use></g></g><g><g><use xlink:href="#b3LHceFhAU" opacity="1" fill-opacity="0" stroke="#1d1b1b" stroke-width="3" stroke-opacity="1"></use></g></g><g><g><use xlink:href="#c6yi3lLg9" opacity="1" fill-opacity="0" stroke="#000000" stroke-width="3" stroke-opacity="1"></use></g></g><g><g><use xlink:href="#a1mKXojmAX" opacity="1" fill-opacity="0" stroke="#1d1b1b" stroke-width="3" stroke-opacity="1"></use></g></g><g><g><use xlink:href="#a1hNuBI3dj" opacity="1" fill-opacity="0" stroke="#000000" stroke-width="3" stroke-opacity="1"></use></g></g><g><use xlink:href="#b1hh4FQheT" opacity="1" fill="#000000" fill-opacity="1"></use><g><use xlink:href="#b1hh4FQheT" opacity="1" fill-opacity="0" stroke="#5f4242" stroke-width="3" stroke-opacity="1"></use></g></g><g><use xlink:href="#i1gMkewlF" opacity="1" fill="#000000" fill-opacity="1"></use><g><use xlink:href="#i1gMkewlF" opacity="1" fill-opacity="0" stroke="#5f4242" stroke-width="3" stroke-opacity="1"></use></g></g><g><use xlink:href="#a1Vd6MdRvM" opacity="1" fill="#000000" fill-opacity="1"></use><g><use xlink:href="#a1Vd6MdRvM" opacity="1" fill-opacity="0" stroke="#5f4242" stroke-width="3" stroke-opacity="1"></use></g></g><g><use xlink:href="#b1b0S3c11L" opacity="1" fill="#000000" fill-opacity="1"></use><g><use xlink:href="#b1b0S3c11L" opacity="1" fill-opacity="0" stroke="#5f4242" stroke-width="3" stroke-opacity="1"></use></g></g><g><use xlink:href="#adhUYmkTM" opacity="1" fill="#000000" fill-opacity="1"></use><g><use xlink:href="#adhUYmkTM" opacity="1" fill-opacity="0" stroke="#5f4242" stroke-width="3" stroke-opacity="1"></use></g></g><g><use xlink:href="#k1FpVqLPQ" opacity="1" fill="#282d28" fill-opacity="1"></use><g><use xlink:href="#k1FpVqLPQ" opacity="1" fill-opacity="0" stroke="#5f4242" stroke-width="3" stroke-opacity="1"></use></g></g><g><g><use xlink:href="#gaDwVwVvM" opacity="1" fill-opacity="0" stroke="#000000" stroke-width="3" stroke-opacity="1"></use></g></g><g><g><use xlink:href="#i440KXR69l" opacity="1" fill-opacity="0" stroke="#000000" stroke-width="3" stroke-opacity="1"></use></g></g><g><use xlink:href="#e8QatLFFZQ" opacity="1" fill="#000000" fill-opacity="1"></use><g><use xlink:href="#e8QatLFFZQ" opacity="1" fill-opacity="0" stroke="#000000" stroke-width="3" stroke-opacity="1"></use></g></g><g><g><use xlink:href="#a19tbVT4Aj" opacity="1" fill-opacity="0" stroke="#000000" stroke-width="3" stroke-opacity="1"></use></g></g><g><g><use xlink:href="#a3SptOEtkr" opacity="1" fill-opacity="0" stroke="#000000" stroke-width="3" stroke-opacity="1"></use></g></g><g><g><use xlink:href="#bbB0CtJut" opacity="1" fill-opacity="0" stroke="#000000" stroke-width="3" stroke-opacity="1"></use></g></g><g><g><use xlink:href="#m3GrZH7S17" opacity="1" fill-opacity="0" stroke="#000000" stroke-width="3" stroke-opacity="1"></use></g></g><g><g><use xlink:href="#b11kT8OEBb" opacity="1" fill-opacity="0" stroke="#000000" stroke-width="3" stroke-opacity="1"></use></g></g><g><use xlink:href="#f4LyHBacp" opacity="1" fill="#000000" fill-opacity="1"></use><g><use xlink:href="#f4LyHBacp" opacity="1" fill-opacity="0" stroke="#000000" stroke-width="3" stroke-opacity="1"></use></g></g></g></svg>